<svg t="1643287446481" class="icon" viewBox="0 0 1024 1024" version="1.1" xmlns="http://www.w3.org/2000/svg" p-id="7552" width="512" height="512"><path d="M511.854 19.675C239.945 19.675 19.529 240.091 19.529 512c0 271.945 220.416 492.361 492.325 492.361S1004.25 783.91 1004.25 512 783.726 19.675 511.854 19.675zM794.44 413.111c0.293 6.107 0.366 12.215 0.366 18.432 0 187.502-139.337 404.004-394.13 404.004-78.263 0-151.04-23.442-212.334-64a272.97 272.97 0 0 0 205.129-58.733c-60.599-1.024-111.799-41.911-129.463-98.633 8.521 1.828 17.189 2.596 26.039 2.596 12.654 0 24.905-1.719 36.571-4.827-63.414-13.24-111.14-70.583-111.14-139.264l0.036-1.939a133.01 133.01 0 0 0 62.684 17.701 142.592 142.592 0 0 1-61.66-118.126c0-25.965 6.912-50.322 18.798-71.314 68.279 85.906 170.423 142.446 285.44 148.26a148.992 148.992 0 0 1-3.584-32.365c0-78.41 62.025-142.007 138.57-142.007 39.862 0 75.885 17.371 101.083 45.02a278.491 278.491 0 0 0 88.1-34.414 141.385 141.385 0 0 1-61.074 78.409 271.653 271.653 0 0 0 79.653-22.309 288.695 288.695 0 0 1-69.12 73.509z" fill="#2DA9E3" p-id="7553"></path></svg>
